<?xml version="1.0" encoding="UTF-8" standalone="no"?>
<!DOCTYPE svg PUBLIC "-//W3C//DTD SVG 1.1//EN" "http://www.w3.org/Graphics/SVG/1.1/DTD/svg11.dtd">
<svg width="100%" height="100%" viewBox="0 0 770 158" version="1.1" xmlns="http://www.w3.org/2000/svg" xmlns:xlink="http://www.w3.org/1999/xlink" xml:space="preserve" xmlns:serif="http://www.serif.com/" style="fill-rule:evenodd;clip-rule:evenodd;stroke-linejoin:round;stroke-miterlimit:2;">
    <g transform="matrix(1,0,0,1,-214.221,-22.15)">
        <g transform="matrix(8.05229,0,0,8.05229,-3005.33,-1620.89)">
            <g transform="matrix(12,0,0,12,414.288,218.642)">
                <path d="M0.548,0L0.548,-0.293L0.273,-0.293L0.273,0L0.058,0L0.058,-0.776L0.273,-0.776L0.273,-0.48L0.548,-0.48L0.548,-0.776L0.765,-0.776L0.765,0L0.548,0Z" style="fill-rule:nonzero;"/>
            </g>
            <g transform="matrix(12,0,0,12,423.636,218.642)">
                <path d="M0.576,0L0.536,-0.107L0.297,-0.107L0.257,0L0.038,0L0.325,-0.776L0.508,-0.776L0.795,0L0.576,0ZM0.417,-0.492L0.355,-0.287L0.478,-0.287L0.417,-0.492Z" style="fill-rule:nonzero;"/>
            </g>
            <g transform="matrix(12,0,0,12,433.8,218.642)">
                <path d="M0.523,0L0.388,-0.24L0.257,-0.24L0.258,0L0.044,0L0.044,-0.776L0.433,-0.776C0.452,-0.776 0.471,-0.773 0.49,-0.766C0.509,-0.759 0.528,-0.749 0.546,-0.738C0.564,-0.726 0.581,-0.713 0.596,-0.698C0.611,-0.683 0.624,-0.668 0.635,-0.653C0.648,-0.634 0.659,-0.611 0.666,-0.586C0.673,-0.56 0.676,-0.535 0.676,-0.512C0.676,-0.473 0.667,-0.437 0.649,-0.404C0.631,-0.371 0.606,-0.343 0.574,-0.32L0.756,0L0.523,0ZM0.372,-0.604L0.251,-0.604L0.251,-0.436L0.372,-0.436C0.384,-0.436 0.395,-0.438 0.406,-0.443C0.417,-0.447 0.426,-0.453 0.434,-0.461C0.442,-0.468 0.448,-0.477 0.453,-0.487C0.458,-0.497 0.46,-0.508 0.46,-0.52C0.46,-0.532 0.458,-0.543 0.453,-0.553C0.448,-0.563 0.442,-0.572 0.434,-0.58C0.426,-0.587 0.417,-0.593 0.406,-0.598C0.395,-0.602 0.384,-0.604 0.372,-0.604Z" style="fill-rule:nonzero;"/>
            </g>
            <g transform="matrix(12,0,0,12,441.984,218.642)">
                <path d="M0.503,0L0.316,0L0.027,-0.774L0.259,-0.774L0.409,-0.373L0.559,-0.774L0.791,-0.774L0.503,0Z" style="fill-rule:nonzero;"/>
            </g>
            <g transform="matrix(12,0,0,12,451.632,218.642)">
                <path d="M0.045,0L0.045,-0.776L0.664,-0.776L0.664,-0.591L0.247,-0.591L0.247,-0.48L0.64,-0.48L0.64,-0.295L0.247,-0.295L0.247,-0.184L0.664,-0.184L0.664,0L0.045,0Z" style="fill-rule:nonzero;"/>
            </g>
            <g transform="matrix(12,0,0,12,459.996,218.642)">
                <path d="M0.354,0.024C0.302,0.024 0.251,0.018 0.2,0.006C0.149,-0.007 0.1,-0.024 0.053,-0.046C0.052,-0.046 0.048,-0.047 0.043,-0.05C0.038,-0.053 0.035,-0.056 0.035,-0.057C0.035,-0.058 0.036,-0.06 0.039,-0.065C0.042,-0.07 0.045,-0.076 0.049,-0.083L0.079,-0.134C0.09,-0.153 0.101,-0.17 0.111,-0.187C0.121,-0.204 0.128,-0.216 0.132,-0.223C0.141,-0.22 0.149,-0.216 0.157,-0.211C0.193,-0.193 0.229,-0.179 0.266,-0.17C0.302,-0.16 0.34,-0.155 0.381,-0.155C0.392,-0.155 0.405,-0.156 0.418,-0.157C0.431,-0.158 0.442,-0.16 0.453,-0.164C0.464,-0.168 0.472,-0.174 0.48,-0.183C0.487,-0.191 0.49,-0.203 0.49,-0.218C0.49,-0.225 0.488,-0.232 0.484,-0.238C0.48,-0.243 0.475,-0.248 0.469,-0.253C0.463,-0.257 0.457,-0.261 0.45,-0.264C0.443,-0.267 0.437,-0.27 0.431,-0.272C0.417,-0.277 0.403,-0.281 0.388,-0.284C0.373,-0.287 0.359,-0.29 0.344,-0.293C0.325,-0.298 0.306,-0.302 0.287,-0.306C0.268,-0.31 0.25,-0.315 0.233,-0.32C0.215,-0.325 0.198,-0.331 0.182,-0.338C0.165,-0.344 0.15,-0.351 0.136,-0.36C0.107,-0.377 0.085,-0.401 0.068,-0.43C0.051,-0.459 0.042,-0.497 0.042,-0.545C0.042,-0.562 0.044,-0.579 0.048,-0.596C0.051,-0.612 0.057,-0.629 0.064,-0.644C0.079,-0.675 0.098,-0.7 0.121,-0.72C0.144,-0.74 0.17,-0.756 0.199,-0.767C0.227,-0.778 0.257,-0.786 0.288,-0.791C0.319,-0.796 0.351,-0.798 0.382,-0.798C0.433,-0.798 0.484,-0.792 0.534,-0.78C0.584,-0.767 0.632,-0.747 0.677,-0.719C0.66,-0.691 0.644,-0.664 0.629,-0.637C0.613,-0.61 0.597,-0.582 0.581,-0.554C0.542,-0.573 0.505,-0.588 0.469,-0.6C0.432,-0.612 0.393,-0.618 0.351,-0.618C0.341,-0.618 0.331,-0.618 0.32,-0.617C0.309,-0.616 0.298,-0.613 0.289,-0.609C0.28,-0.605 0.272,-0.599 0.266,-0.592C0.26,-0.584 0.257,-0.574 0.257,-0.561C0.257,-0.552 0.259,-0.544 0.263,-0.537C0.268,-0.53 0.276,-0.523 0.289,-0.518C0.301,-0.512 0.316,-0.507 0.334,-0.502C0.352,-0.497 0.372,-0.493 0.393,-0.489C0.414,-0.484 0.437,-0.479 0.46,-0.473C0.483,-0.467 0.505,-0.46 0.529,-0.453C0.552,-0.445 0.573,-0.436 0.594,-0.425C0.614,-0.413 0.632,-0.401 0.648,-0.386C0.664,-0.371 0.677,-0.353 0.686,-0.332C0.693,-0.317 0.698,-0.3 0.701,-0.283C0.704,-0.265 0.705,-0.247 0.705,-0.23C0.705,-0.179 0.695,-0.138 0.674,-0.105C0.653,-0.072 0.626,-0.047 0.593,-0.028C0.56,-0.009 0.522,0.005 0.48,0.013C0.438,0.02 0.396,0.024 0.354,0.024Z" style="fill-rule:nonzero;"/>
            </g>
            <g transform="matrix(12,0,0,12,468.72,218.642)">
                <path d="M0.688,-0.584L0.475,-0.584L0.475,0L0.264,0L0.264,-0.584L0.051,-0.584L0.037,-0.598L0.037,-0.776L0.702,-0.776L0.702,-0.598L0.688,-0.584Z" style="fill-rule:nonzero;"/>
            </g>
            <g transform="matrix(12,0,0,12,477.576,218.642)">
                <path d="M0.045,0L0.045,-0.776L0.664,-0.776L0.664,-0.591L0.247,-0.591L0.247,-0.48L0.64,-0.48L0.64,-0.295L0.247,-0.295L0.247,-0.184L0.664,-0.184L0.664,0L0.045,0Z" style="fill-rule:nonzero;"/>
            </g>
            <g transform="matrix(12,0,0,12,486.36,218.642)">
                <path d="M0.523,0L0.388,-0.24L0.257,-0.24L0.258,0L0.044,0L0.044,-0.776L0.433,-0.776C0.452,-0.776 0.471,-0.773 0.49,-0.766C0.509,-0.759 0.528,-0.749 0.546,-0.738C0.564,-0.726 0.581,-0.713 0.596,-0.698C0.611,-0.683 0.624,-0.668 0.635,-0.653C0.648,-0.634 0.659,-0.611 0.666,-0.586C0.673,-0.56 0.676,-0.535 0.676,-0.512C0.676,-0.473 0.667,-0.437 0.649,-0.404C0.631,-0.371 0.606,-0.343 0.574,-0.32L0.756,0L0.523,0ZM0.372,-0.604L0.251,-0.604L0.251,-0.436L0.372,-0.436C0.384,-0.436 0.395,-0.438 0.406,-0.443C0.417,-0.447 0.426,-0.453 0.434,-0.461C0.442,-0.468 0.448,-0.477 0.453,-0.487C0.458,-0.497 0.46,-0.508 0.46,-0.52C0.46,-0.532 0.458,-0.543 0.453,-0.553C0.448,-0.563 0.442,-0.572 0.434,-0.58C0.426,-0.587 0.417,-0.593 0.406,-0.598C0.395,-0.602 0.384,-0.604 0.372,-0.604Z" style="fill-rule:nonzero;"/>
            </g>
        </g>
        <g transform="matrix(0.29773,0,0,0.251926,219.105,73.4605)">
            <g transform="matrix(2.00959,0,0,2.08123,-48.166,-146.276)">
                <path d="M151.382,99.706C152.653,99.84 152.857,99.957 153.399,100.177C155.581,101.063 157.212,103.167 157.507,105.525C157.553,105.892 157.548,105.986 157.559,106.355L157.559,147.069C157.481,149.518 156.136,151.745 154.019,152.957L103.087,179.998C101.711,180.674 101.215,180.72 100.303,180.767C96.992,180.937 93.767,178.295 93.346,174.939C93.3,174.572 93.306,174.479 93.294,174.109L93.294,133.396C93.372,130.946 94.717,128.72 96.835,127.507L147.766,100.467C148.792,99.962 149.345,99.62 151.382,99.706Z" style="fill:rgb(199,167,125);"/>
            </g>
            <g transform="matrix(2.00959,0,0,2.08123,-48.166,-291.982)">
                <path d="M151.382,99.706C152.653,99.84 152.857,99.957 153.399,100.177C155.581,101.063 157.212,103.167 157.507,105.525C157.553,105.892 157.548,105.986 157.559,106.355L157.559,147.069C157.481,149.518 156.136,151.745 154.019,152.957L103.087,179.998C101.711,180.674 101.215,180.72 100.303,180.767C96.992,180.937 93.767,178.295 93.346,174.939C93.3,174.572 93.306,174.479 93.294,174.109L93.294,133.396C93.372,130.946 94.717,128.72 96.835,127.507L147.766,100.467C148.792,99.962 149.345,99.62 151.382,99.706Z" style="fill:rgb(199,167,125);"/>
            </g>
            <g transform="matrix(-2.00959,0,0,2.08123,301.455,-146.276)">
                <path d="M151.382,99.706C152.653,99.84 152.857,99.957 153.399,100.177C155.581,101.063 157.212,103.167 157.507,105.525C157.553,105.892 157.548,105.986 157.559,106.355L157.559,147.069C157.481,149.518 156.136,151.745 154.019,152.957L103.087,179.998C101.711,180.674 101.215,180.72 100.303,180.767C96.992,180.937 93.767,178.295 93.346,174.939C93.3,174.572 93.306,174.479 93.294,174.109L93.294,133.396C93.372,130.946 94.717,128.72 96.835,127.507L147.766,100.467C148.792,99.962 149.345,99.62 151.382,99.706Z" style="fill:rgb(199,167,125);"/>
            </g>
            <g transform="matrix(-2.00959,0,0,2.08123,301.455,-291.982)">
                <path d="M151.382,99.706C152.653,99.84 152.857,99.957 153.399,100.177C155.581,101.063 157.212,103.167 157.507,105.525C157.553,105.892 157.548,105.986 157.559,106.355L157.559,147.069C157.481,149.518 156.136,151.745 154.019,152.957L103.087,179.998C101.711,180.674 101.215,180.72 100.303,180.767C96.992,180.937 93.767,178.295 93.346,174.939C93.3,174.572 93.306,174.479 93.294,174.109L93.294,133.396C93.372,130.946 94.717,128.72 96.835,127.507L147.766,100.467C148.792,99.962 149.345,99.62 151.382,99.706Z" style="fill:rgb(199,167,125);"/>
            </g>
            <g transform="matrix(5.06497,0,0,2.37098,-1086.49,-65.7776)">
                <path d="M268.046,140.892C268.046,138.187 267.176,135.991 266.105,135.991L213.213,135.991C212.142,135.991 211.272,138.187 211.272,140.892L211.272,150.692C211.272,153.396 212.142,155.592 213.213,155.592L266.105,155.592C267.176,155.592 268.046,153.396 268.046,150.692L268.046,140.892Z" style="fill:rgb(199,167,125);"/>
            </g>
        </g>
    </g>
</svg>
