<?xml version="1.0" encoding="UTF-8" standalone="no"?>
<!DOCTYPE svg PUBLIC "-//W3C//DTD SVG 1.1//EN" "http://www.w3.org/Graphics/SVG/1.1/DTD/svg11.dtd">
<svg width="100%" height="100%" viewBox="0 0 255 275" version="1.1" xmlns="http://www.w3.org/2000/svg" xmlns:xlink="http://www.w3.org/1999/xlink" xml:space="preserve" xmlns:serif="http://www.serif.com/" style="fill-rule:evenodd;clip-rule:evenodd;stroke-linejoin:round;stroke-miterlimit:1.41421;">
    <g transform="matrix(4.16667,0,0,4.16667,-583.587,-462.596)">
        <g transform="matrix(1.66533e-16,0.550114,-0.738697,-1.66533e-16,296.668,128.316)">
            <path d="M43.527,130.996L15.714,188.566L28.044,211.046C28.742,212.375 28.897,212.351 29.635,210.748L58.045,151.939L47.104,131.424C45.691,128.441 44.722,128.521 43.527,130.996ZM74.973,131.043L47.028,188.678L59.23,210.989C59.898,212.319 60.342,212.401 61.081,210.796L86.766,157.631C88.925,153.587 88.783,150.158 86.766,146.71L78.435,131.518C76.917,128.658 76.169,128.571 74.973,131.043ZM12.428,130.748L1.452,152.018C-0.606,155.893 -0.357,159.127 1.453,162.563L11.911,181.63L26.54,151.49L15.493,131.35C14.413,129.227 13.733,128.143 12.428,130.748Z" style="fill:rgb(39,47,52);fill-rule:nonzero;"/>
        </g>
        <g transform="matrix(1.66533e-16,0.550114,-0.738697,-1.66533e-16,296.668,118.716)">
            <path d="M43.527,130.996L15.714,188.566L28.044,211.046C28.742,212.375 28.897,212.351 29.635,210.748L58.045,151.939L47.104,131.424C45.691,128.441 44.722,128.521 43.527,130.996ZM74.973,131.043L47.028,188.678L59.23,210.989C59.898,212.319 60.342,212.401 61.081,210.796L86.766,157.631C88.925,153.587 88.783,150.158 86.766,146.71L78.435,131.518C76.917,128.658 76.169,128.571 74.973,131.043ZM12.428,130.748L1.452,152.018C-0.606,155.893 -0.357,159.127 1.453,162.563L11.911,181.63L26.54,151.49L15.493,131.35C14.413,129.227 13.733,128.143 12.428,130.748Z" style="fill:rgb(54,61,65);fill-rule:nonzero;"/>
        </g>
        <g transform="matrix(1.66533e-16,0.550114,-0.738697,-1.66533e-16,296.668,111.036)">
            <path d="M43.527,130.996L15.714,188.566L28.044,211.046C28.742,212.375 28.897,212.351 29.635,210.748L58.045,151.939L47.104,131.424C45.691,128.441 44.722,128.521 43.527,130.996ZM74.973,131.043L47.028,188.678L59.23,210.989C59.898,212.319 60.342,212.401 61.081,210.796L86.766,157.631C88.925,153.587 88.783,150.158 86.766,146.71L78.435,131.518C76.917,128.658 76.169,128.571 74.973,131.043ZM12.428,130.748L1.452,152.018C-0.606,155.893 -0.357,159.127 1.453,162.563L11.911,181.63L26.54,151.49L15.493,131.35C14.413,129.227 13.733,128.143 12.428,130.748Z" style="fill:rgb(84,93,99);fill-rule:nonzero;"/>
        </g>
    </g>
</svg>
