<?xml version="1.0" encoding="UTF-8" standalone="no"?><!DOCTYPE svg PUBLIC "-//W3C//DTD SVG 1.1//EN" "http://www.w3.org/Graphics/SVG/1.1/DTD/svg11.dtd"><svg width="100%" height="100%" viewBox="0 0 325 71" version="1.1" xmlns="http://www.w3.org/2000/svg" xmlns:xlink="http://www.w3.org/1999/xlink" xml:space="preserve" xmlns:serif="http://www.serif.com/" style="fill-rule:evenodd;clip-rule:evenodd;stroke-linejoin:round;stroke-miterlimit:2;"><g><g><path d="M35.378,0c0.131,0.001 0.262,0.003 0.393,0.007c0.262,0.009 0.524,0.025 0.785,0.048c0.753,0.066 1.501,0.191 2.235,0.374c0.611,0.153 1.212,0.346 1.798,0.577c0.281,0.111 0.558,0.232 0.832,0.359c0.191,0.091 0.382,0.182 0.573,0.273c0.746,0.358 1.489,0.722 2.228,1.092c1.546,0.775 3.078,1.577 4.595,2.406c3.216,1.757 6.365,3.636 9.438,5.633c1.1,0.715 2.19,1.445 3.27,2.19l0.14,0.096c0.109,0.077 0.218,0.154 0.325,0.233c0.188,0.139 0.372,0.282 0.553,0.429c0.589,0.481 1.14,1.008 1.647,1.575c0.828,0.929 1.535,1.965 2.098,3.075c0.551,1.085 0.962,2.239 1.223,3.427c0.1,0.454 0.177,0.914 0.233,1.376c0.016,0.133 0.03,0.265 0.042,0.398c0.014,0.155 0.026,0.309 0.038,0.464c0.028,0.349 0.054,0.699 0.079,1.048c0.1,1.403 0.18,2.807 0.239,4.212c0.188,4.467 0.168,8.943 -0.059,13.408c-0.074,1.451 -0.171,2.9 -0.288,4.348l-0.01,0.1c-0.009,0.1 -0.019,0.2 -0.03,0.3c-0.026,0.232 -0.058,0.464 -0.096,0.694c-0.122,0.752 -0.304,1.493 -0.543,2.216c-0.382,1.152 -0.91,2.256 -1.567,3.277c-0.678,1.051 -1.493,2.013 -2.418,2.855c-0.345,0.313 -0.705,0.609 -1.079,0.888c-0.232,0.173 -0.47,0.337 -0.709,0.501c-0.299,0.206 -0.599,0.411 -0.9,0.614c-1.106,0.749 -2.223,1.482 -3.35,2.199c-3.851,2.451 -7.819,4.719 -11.886,6.794c-1.244,0.635 -2.499,1.251 -3.761,1.849l-0.088,0.041c-0.091,0.042 -0.183,0.084 -0.275,0.125c-0.215,0.094 -0.431,0.182 -0.651,0.266c-0.589,0.226 -1.194,0.411 -1.808,0.557c-0.993,0.236 -2.012,0.366 -3.032,0.387c-1.02,0.021 -2.042,-0.067 -3.043,-0.261c-0.781,-0.152 -1.55,-0.369 -2.296,-0.647c-0.251,-0.094 -0.499,-0.195 -0.744,-0.302c-0.092,-0.041 -0.184,-0.083 -0.276,-0.125c-0.141,-0.066 -0.282,-0.133 -0.422,-0.2c-1.259,-0.601 -2.51,-1.219 -3.75,-1.856c-3.791,-1.945 -7.495,-4.06 -11.098,-6.332c-1.13,-0.713 -2.25,-1.442 -3.359,-2.186c-0.556,-0.372 -1.108,-0.749 -1.659,-1.13l-0.079,-0.055c-0.109,-0.077 -0.218,-0.156 -0.326,-0.236c-0.188,-0.14 -0.372,-0.284 -0.553,-0.433c-0.588,-0.486 -1.139,-1.018 -1.643,-1.591c-0.696,-0.79 -1.305,-1.656 -1.813,-2.579c-0.476,-0.865 -0.863,-1.78 -1.152,-2.724c-0.195,-0.636 -0.346,-1.284 -0.451,-1.94c-0.037,-0.231 -0.069,-0.464 -0.095,-0.696c-0.01,-0.101 -0.02,-0.201 -0.03,-0.301c-0.013,-0.156 -0.025,-0.311 -0.037,-0.467c-0.11,-1.39 -0.199,-2.782 -0.268,-4.175c-0.207,-4.195 -0.231,-8.399 -0.072,-12.595c0.053,-1.396 0.126,-2.791 0.22,-4.184c0.045,-0.668 0.095,-1.335 0.149,-2.002l0.008,-0.095c0.01,-0.101 0.02,-0.201 0.031,-0.301c0.025,-0.233 0.057,-0.465 0.094,-0.696c0.105,-0.657 0.256,-1.305 0.451,-1.94c0.289,-0.945 0.676,-1.859 1.152,-2.725c0.492,-0.894 1.079,-1.735 1.747,-2.504c0.523,-0.601 1.095,-1.159 1.709,-1.665c0.181,-0.149 0.365,-0.294 0.553,-0.434c0.108,-0.08 0.217,-0.158 0.326,-0.236c0.128,-0.089 0.257,-0.178 0.385,-0.266c1.1,-0.756 2.209,-1.496 3.329,-2.221c3.527,-2.282 7.154,-4.409 10.866,-6.374c1.289,-0.682 2.587,-1.345 3.896,-1.987c0.6,-0.295 1.203,-0.585 1.808,-0.872l0.087,-0.041c0.273,-0.125 0.549,-0.244 0.829,-0.353c0.617,-0.241 1.252,-0.439 1.896,-0.593c0.704,-0.167 1.419,-0.281 2.14,-0.342c0.327,-0.027 0.654,-0.042 0.981,-0.048c0.099,-0.001 0.197,-0.001 0.295,-0.001Zm-0.12,9.344c-0.127,0.001 -0.254,0.006 -0.38,0.017c-0.253,0.021 -0.505,0.061 -0.752,0.12c-0.215,0.051 -0.426,0.117 -0.633,0.195c-0.11,0.042 -0.218,0.088 -0.325,0.138c-0.163,0.076 -0.325,0.154 -0.487,0.231c-0.919,0.44 -1.834,0.89 -2.744,1.351c-1.776,0.901 -3.532,1.841 -5.266,2.819c-1.737,0.979 -3.452,1.997 -5.144,3.052c-0.916,0.572 -1.825,1.154 -2.727,1.747c-0.662,0.436 -1.321,0.877 -1.975,1.325c-0.14,0.095 -0.279,0.192 -0.419,0.288c-0.114,0.078 -0.227,0.156 -0.337,0.24c-0.203,0.156 -0.396,0.328 -0.573,0.514c-0.288,0.301 -0.539,0.638 -0.745,1c-0.212,0.373 -0.376,0.772 -0.487,1.186c-0.058,0.215 -0.102,0.433 -0.131,0.653c-0.018,0.137 -0.028,0.274 -0.039,0.412c-0.014,0.169 -0.027,0.338 -0.04,0.506c-0.056,0.734 -0.106,1.469 -0.15,2.203c-0.071,1.191 -0.126,2.382 -0.165,3.575c-0.06,1.822 -0.083,3.645 -0.069,5.468c0.017,2.218 0.088,4.436 0.214,6.651c0.042,0.735 0.09,1.469 0.144,2.203c0.017,0.226 0.034,0.451 0.052,0.677c0.01,0.123 0.019,0.246 0.03,0.369c0.003,0.035 0.007,0.071 0.011,0.106c0.014,0.128 0.033,0.256 0.057,0.383c0.048,0.252 0.114,0.5 0.199,0.741c0.142,0.404 0.336,0.789 0.575,1.144c0.226,0.337 0.494,0.647 0.794,0.92c0.121,0.11 0.248,0.215 0.38,0.313c0.137,0.102 0.279,0.197 0.42,0.294c0.279,0.192 0.559,0.383 0.84,0.573c0.798,0.54 1.602,1.071 2.412,1.593c3.253,2.099 6.597,4.057 10.018,5.869c1.154,0.611 2.317,1.205 3.488,1.782c0.406,0.2 0.813,0.398 1.221,0.593c0.213,0.103 0.426,0.205 0.64,0.305c0.032,0.015 0.064,0.03 0.097,0.044c0.119,0.051 0.239,0.099 0.361,0.142c0.252,0.088 0.512,0.157 0.776,0.204c0.695,0.125 1.415,0.103 2.101,-0.065c0.215,-0.052 0.427,-0.12 0.634,-0.2c0.099,-0.038 0.196,-0.08 0.293,-0.125c0.163,-0.076 0.325,-0.154 0.487,-0.231c1.124,-0.539 2.241,-1.092 3.35,-1.661c4.001,-2.054 7.899,-4.308 11.674,-6.751c0.808,-0.524 1.612,-1.056 2.409,-1.597c0.233,-0.159 0.467,-0.318 0.7,-0.478c0.141,-0.097 0.283,-0.192 0.42,-0.294c0.14,-0.105 0.276,-0.218 0.405,-0.336c0.314,-0.29 0.591,-0.62 0.823,-0.979c0.231,-0.359 0.417,-0.747 0.551,-1.152c0.084,-0.254 0.148,-0.514 0.19,-0.778c0.019,-0.116 0.034,-0.233 0.045,-0.35c0.016,-0.182 0.029,-0.364 0.044,-0.547c0.104,-1.348 0.189,-2.699 0.252,-4.051c0.16,-3.397 0.19,-6.8 0.093,-10.2c-0.045,-1.59 -0.118,-3.179 -0.22,-4.766c-0.032,-0.49 -0.066,-0.981 -0.103,-1.471c-0.012,-0.163 -0.024,-0.326 -0.038,-0.49c-0.009,-0.116 -0.017,-0.231 -0.028,-0.347c-0.003,-0.036 -0.006,-0.071 -0.011,-0.106c-0.012,-0.104 -0.026,-0.209 -0.045,-0.312c-0.04,-0.229 -0.096,-0.454 -0.167,-0.675c-0.227,-0.702 -0.608,-1.352 -1.111,-1.893c-0.182,-0.196 -0.379,-0.377 -0.59,-0.541c-0.055,-0.044 -0.112,-0.086 -0.169,-0.127c-0.056,-0.04 -0.113,-0.079 -0.169,-0.118c-0.202,-0.138 -0.404,-0.277 -0.606,-0.414c-1.054,-0.719 -2.118,-1.423 -3.193,-2.111c-2.911,-1.864 -5.894,-3.616 -8.939,-5.252c-1.309,-0.704 -2.631,-1.386 -3.963,-2.046c-0.462,-0.229 -0.925,-0.455 -1.389,-0.679c-0.174,-0.083 -0.348,-0.167 -0.522,-0.249c-0.063,-0.03 -0.126,-0.061 -0.189,-0.09c-0.033,-0.015 -0.065,-0.029 -0.098,-0.044c-0.289,-0.124 -0.588,-0.224 -0.895,-0.294c-0.327,-0.074 -0.66,-0.115 -0.994,-0.125c-0.058,-0.001 -0.116,-0.002 -0.173,-0.001Z" style="fill:#d0b977;fill-rule:nonzero;"/><g><path d="M52.689,38.963c0,-0.685 -0.363,-1.319 -0.954,-1.665c-0.591,-0.347 -1.322,-0.354 -1.919,-0.019c-3.587,2.011 -9.535,5.345 -11.872,6.656c-0.609,0.341 -0.986,0.985 -0.986,1.683l0,7.607c0,0.685 0.364,1.319 0.955,1.665c0.591,0.347 1.321,0.353 1.919,0.018c3.586,-2.01 9.534,-5.345 11.871,-6.655c0.609,-0.341 0.986,-0.985 0.986,-1.683l0,-7.607Z" style="fill:#d0b977;"/><path d="M17.903,38.963c-0,-0.685 0.363,-1.319 0.954,-1.665c0.591,-0.347 1.321,-0.354 1.919,-0.019c3.587,2.011 9.534,5.345 11.871,6.656c0.609,0.341 0.986,0.985 0.986,1.683l0,7.607c0,0.685 -0.363,1.319 -0.954,1.665c-0.591,0.347 -1.321,0.353 -1.919,0.018c-3.587,-2.01 -9.534,-5.345 -11.871,-6.655c-0.609,-0.341 -0.986,-0.985 -0.986,-1.683l-0,-7.607Z" style="fill:#d0b977;"/><path d="M52.689,23.295c0,-0.685 -0.363,-1.319 -0.954,-1.665c-0.591,-0.346 -1.322,-0.353 -1.919,-0.018c-3.587,2.01 -9.535,5.345 -11.872,6.655c-0.609,0.341 -0.986,0.985 -0.986,1.683l0,7.607c0,0.685 0.364,1.319 0.955,1.665c0.591,0.347 1.321,0.354 1.919,0.019c3.586,-2.011 9.534,-5.345 11.871,-6.655c0.609,-0.342 0.986,-0.986 0.986,-1.684l0,-7.607Z" style="fill:#d0b977;"/><path d="M17.903,23.295c-0,-0.685 0.363,-1.319 0.954,-1.665c0.591,-0.346 1.321,-0.353 1.919,-0.018c3.587,2.01 9.534,5.345 11.871,6.655c0.609,0.341 0.986,0.985 0.986,1.683l0,7.607c0,0.685 -0.363,1.319 -0.954,1.665c-0.591,0.347 -1.321,0.354 -1.919,0.019c-3.587,-2.011 -9.534,-5.345 -11.871,-6.655c-0.609,-0.342 -0.986,-0.986 -0.986,-1.684l-0,-7.607Z" style="fill:#d0b977;"/></g></g><path d="M107.792,20.625l0,29.375l-8.167,0l0,-11.792l-9.958,0l0,11.792l-8.167,0l0,-29.375l8.167,0l0,11.042l9.958,-0l0,-11.042l8.167,0Z" style="fill:#d0b977;fill-rule:nonzero;"/><path d="M131.049,45.208l-10.417,0l-1.583,4.792l-8.584,0l10.709,-29.375l9.416,0l10.667,29.375l-8.625,0l-1.583,-4.792Zm-2.042,-6.25l-3.167,-9.5l-3.125,9.5l6.292,0Z" style="fill:#d0b977;fill-rule:nonzero;"/><path d="M158.794,50l-5.834,-10.833l-0.875,-0l0,10.833l-8.166,0l-0,-29.375l12.875,0c2.361,0 4.361,0.417 6,1.25c1.639,0.806 2.875,1.931 3.708,3.375c0.833,1.417 1.25,3.014 1.25,4.792c0,2 -0.555,3.764 -1.667,5.291c-1.083,1.5 -2.68,2.57 -4.791,3.209l6.625,11.458l-9.125,0Zm-6.709,-16.417l4.042,0c1.111,0 1.945,-0.264 2.5,-0.791c0.556,-0.528 0.833,-1.292 0.833,-2.292c0,-0.944 -0.291,-1.681 -0.875,-2.208c-0.555,-0.556 -1.375,-0.834 -2.458,-0.834l-4.042,0l0,6.125Z" style="fill:#d0b977;fill-rule:nonzero;"/><path d="M200.05,20.625l-10.125,29.375l-10.459,0l-10.166,-29.375l8.75,0l6.666,21.208l6.625,-21.208l8.709,0Z" style="fill:#d0b977;fill-rule:nonzero;"/><path d="M210.761,27.167l-0,4.791l9.375,0l-0,6.209l-9.375,-0l-0,5.291l10.625,0l-0,6.542l-18.792,0l0,-29.375l18.792,0l-0,6.542l-10.625,-0Z" style="fill:#d0b977;fill-rule:nonzero;"/><path d="M236.505,50.292c-3.417,-0 -6.223,-0.806 -8.417,-2.417c-2.195,-1.639 -3.375,-3.972 -3.542,-7l8.709,0c0.083,1.028 0.388,1.778 0.916,2.25c0.528,0.472 1.209,0.708 2.042,0.708c0.75,0 1.361,-0.18 1.833,-0.541c0.5,-0.389 0.75,-0.917 0.75,-1.584c0,-0.861 -0.403,-1.527 -1.208,-2c-0.806,-0.472 -2.111,-1 -3.917,-1.583c-1.916,-0.639 -3.472,-1.25 -4.666,-1.833c-1.167,-0.611 -2.195,-1.486 -3.084,-2.625c-0.861,-1.167 -1.291,-2.681 -1.291,-4.542c-0,-1.889 0.472,-3.5 1.416,-4.833c0.944,-1.361 2.25,-2.389 3.917,-3.084c1.667,-0.694 3.555,-1.041 5.667,-1.041c3.416,-0 6.138,0.805 8.166,2.416c2.056,1.584 3.153,3.82 3.292,6.709l-8.875,-0c-0.028,-0.889 -0.306,-1.556 -0.833,-2c-0.5,-0.445 -1.153,-0.667 -1.959,-0.667c-0.611,0 -1.111,0.181 -1.5,0.542c-0.389,0.361 -0.583,0.875 -0.583,1.541c-0,0.556 0.208,1.042 0.625,1.459c0.444,0.389 0.986,0.736 1.625,1.041c0.639,0.278 1.583,0.639 2.833,1.084c1.861,0.639 3.389,1.277 4.584,1.916c1.222,0.611 2.263,1.486 3.125,2.625c0.888,1.111 1.333,2.528 1.333,4.25c-0,1.75 -0.445,3.32 -1.333,4.709c-0.862,1.388 -2.125,2.486 -3.792,3.291c-1.639,0.806 -3.583,1.209 -5.833,1.209Z" style="fill:#d0b977;fill-rule:nonzero;"/><path d="M273.384,20.625l0,6.5l-7.833,0l-0,22.875l-8.167,0l0,-22.875l-7.75,0l0,-6.5l23.75,0Z" style="fill:#d0b977;fill-rule:nonzero;"/><path d="M284.573,27.167l-0,4.791l9.375,0l-0,6.209l-9.375,-0l-0,5.291l10.625,0l-0,6.542l-18.792,0l-0,-29.375l18.792,0l-0,6.542l-10.625,-0Z" style="fill:#d0b977;fill-rule:nonzero;"/><path d="M314.108,50l-5.833,-10.833l-0.875,-0l-0,10.833l-8.167,0l-0,-29.375l12.875,0c2.361,0 4.361,0.417 6,1.25c1.639,0.806 2.875,1.931 3.708,3.375c0.834,1.417 1.25,3.014 1.25,4.792c0,2 -0.555,3.764 -1.666,5.291c-1.084,1.5 -2.681,2.57 -4.792,3.209l6.625,11.458l-9.125,0Zm-6.708,-16.417l4.041,0c1.112,0 1.945,-0.264 2.5,-0.791c0.556,-0.528 0.834,-1.292 0.834,-2.292c-0,-0.944 -0.292,-1.681 -0.875,-2.208c-0.556,-0.556 -1.375,-0.834 -2.459,-0.834l-4.041,0l-0,6.125Z" style="fill:#d0b977;fill-rule:nonzero;"/></g></svg>